<?xml version="1.0" encoding="UTF-8" standalone="no"?>
<!-- Created with Inkscape (http://www.inkscape.org/) -->

<svg
   width="180mm"
   height="31mm"
   viewBox="0 0 180 31"
   version="1.1"
   id="svg2258"
   inkscape:version="1.2.1 (9c6d41e410, 2022-07-14)"
   sodipodi:docname="humantime.svg"
   xmlns:inkscape="http://www.inkscape.org/namespaces/inkscape"
   xmlns:sodipodi="http://sodipodi.sourceforge.net/DTD/sodipodi-0.dtd"
   xmlns:xlink="http://www.w3.org/1999/xlink"
   xmlns="http://www.w3.org/2000/svg"
   xmlns:svg="http://www.w3.org/2000/svg">
  <sodipodi:namedview
     id="namedview2260"
     pagecolor="#ffffff"
     bordercolor="#000000"
     borderopacity="0.25"
     inkscape:showpageshadow="2"
     inkscape:pageopacity="0.0"
     inkscape:pagecheckerboard="0"
     inkscape:deskcolor="#d1d1d1"
     inkscape:document-units="mm"
     showgrid="false"
     inkscape:zoom="0.4204826"
     inkscape:cx="-70.157481"
     inkscape:cy="-199.77045"
     inkscape:window-width="1920"
     inkscape:window-height="951"
     inkscape:window-x="0"
     inkscape:window-y="32"
     inkscape:window-maximized="1"
     inkscape:current-layer="layer1"
     showguides="true">
    <sodipodi:guide
       position="100.36335,-165.63665"
       orientation="1,0"
       id="guide4929"
       inkscape:locked="false" />
    <sodipodi:guide
       position="111.375,-156.04078"
       orientation="1,0"
       id="guide4931"
       inkscape:locked="false" />
    <sodipodi:guide
       position="114.67849,-151.3215"
       orientation="1,0"
       id="guide4933"
       inkscape:locked="false" />
    <sodipodi:guide
       position="129.15095,-147.70339"
       orientation="1,0"
       id="guide4935"
       inkscape:locked="false" />
  </sodipodi:namedview>
  <defs
     id="defs2255">
    <radialGradient
       inkscape:collect="always"
       xlink:href="#linearGradient2012"
       id="radialGradient2006"
       cx="716.79858"
       cy="43.577091"
       fx="716.79858"
       fy="43.577091"
       r="63.357662"
       gradientTransform="matrix(1,0,0,1.0001241,-617.25261,22.567397)"
       gradientUnits="userSpaceOnUse"
       spreadMethod="pad" />
    <linearGradient
       inkscape:collect="always"
       id="linearGradient2012">
      <stop
         style="stop-color:#ffffff;stop-opacity:1;"
         offset="0"
         id="stop2008" />
      <stop
         style="stop-color:#f8f8f8;stop-opacity:0.13495384;"
         offset="0.62044322"
         id="stop2010" />
    </linearGradient>
    <radialGradient
       inkscape:collect="always"
       xlink:href="#linearGradient2018"
       id="radialGradient8213-6-3-0"
       cx="295.2153"
       cy="-77.907059"
       fx="295.2153"
       fy="-77.907059"
       r="54.63723"
       gradientTransform="matrix(0.20747725,0,0,0.20616313,-38.423068,15.342344)"
       gradientUnits="userSpaceOnUse" />
    <linearGradient
       inkscape:collect="always"
       id="linearGradient2018">
      <stop
         style="stop-color:#94fff9;stop-opacity:1;"
         offset="0"
         id="stop2014" />
      <stop
         style="stop-color:#ffffff;stop-opacity:0.14548685;"
         offset="1"
         id="stop2016" />
    </linearGradient>
    <radialGradient
       inkscape:collect="always"
       xlink:href="#linearGradient8311"
       id="radialGradient8315-5-6"
       cx="239.73457"
       cy="-79.856644"
       fx="239.73457"
       fy="-79.856644"
       r="21.521866"
       gradientTransform="matrix(0.69097568,0,0,0.68658645,26.951321,-55.022505)"
       gradientUnits="userSpaceOnUse" />
    <linearGradient
       inkscape:collect="always"
       id="linearGradient8311">
      <stop
         style="stop-color:#ffffff;stop-opacity:1;"
         offset="0"
         id="stop8307" />
      <stop
         style="stop-color:#f8f8f8;stop-opacity:0.13495384;"
         offset="0.4581148"
         id="stop8309" />
    </linearGradient>
  </defs>
  <g
     inkscape:label="Layer 1"
     inkscape:groupmode="layer"
     id="layer1">
    <ellipse
       style="fill:#f9f9f9;stroke-width:0.0546147"
       id="path732-2-2-7"
       cx="21.920336"
       cy="-0.003659005"
       rx="15.511833"
       ry="15.488194"
       transform="matrix(0.70698937,0.70722417,-0.70722581,0.70698773,0,0)" />
    <ellipse
       id="path1872-8-9-9"
       style="fill:#000000;stroke:#000000;stroke-width:0.110875"
       cx="14.287195"
       cy="19.449677"
       rx="0.13274693"
       ry="0.13274655" />
    <ellipse
       id="path2237-8-1-2"
       style="fill:#000000;stroke:#000000;stroke-width:0.0576595"
       cx="4.7948685"
       cy="9.5119219"
       rx="0.097628742"
       ry="0.097628474" />
    <ellipse
       style="fill:#7fff2a;fill-opacity:1;stroke:none;stroke-width:0.1346"
       id="path7697-2-2-0"
       cx="15.559462"
       cy="15.695848"
       rx="13.807303"
       ry="13.808977" />
    <ellipse
       style="fill:url(#radialGradient2006);fill-opacity:1;stroke:none;stroke-width:0.617645"
       id="path7697-2-2-0-0"
       cx="99.545959"
       cy="66.149902"
       rx="63.357662"
       ry="63.365524" />
    <ellipse
       style="fill:url(#radialGradient8213-6-3-0);fill-opacity:1;stroke-width:0.0544353"
       id="path944-8-7-2"
       cx="22.827328"
       cy="-0.71835113"
       rx="11.335983"
       ry="11.264183"
       transform="matrix(0.71392282,0.7002244,-0.71415721,0.69998534,0,0)" />
    <path
       style="fill:#000000;stroke-width:0.0637689"
       d="M 5.8782045,23.669427 C 4.7392869,22.292966 3.7950161,20.309925 3.4125881,18.491397 2.9398143,16.243249 3.0851301,13.906081 3.8293239,11.789013 5.4160136,7.2752517 9.4309092,4.0857315 14.172103,3.5724948 c 3.112265,-0.336907 6.230703,0.5136467 8.746958,2.3856735 0.800451,0.5955267 1.950093,1.7440501 2.526398,2.5238168 1.817178,2.4592239 2.664154,5.4356659 2.40099,8.4376409 -0.552744,6.305594 -5.71673,11.173807 -12.017206,11.328894 -3.869286,0.0953 -7.4445979,-1.550001 -9.9509729,-4.579153 z m 3.1191031,1.790841 c 2.0086794,1.319941 4.1241324,1.973318 6.4334944,1.987028 6.453561,0.0383 11.636106,-5.113183 11.637193,-11.567514 0,-2.407928 -0.704412,-4.675766 -2.059006,-6.6251635 C 24.486613,8.5028848 23.184209,7.1520517 22.453396,6.604015 19.739529,4.5689082 16.138085,3.8336415 12.801741,4.6335382 11.437935,4.9605249 9.9906946,5.6062116 8.8732832,6.386228 8.1951627,6.859605 6.9732276,8.0063281 6.4769966,8.6350418 4.8089028,10.748459 3.9407715,13.227507 3.9403296,15.878802 c 0,1.807118 0.3780195,3.441369 1.1772511,5.08539 0.66311,1.364001 1.1795321,2.060628 2.3970082,3.233432 0.7173724,0.691057 1.0705193,0.991774 1.4827187,1.262644 z M 10.684738,19.380501 C 9.7275629,18.176957 9.0833149,16.446139 9.0159382,14.897135 c -0.025994,-0.597484 0.074541,-0.817564 0.3734469,-0.817514 0.2752037,4e-5 0.400438,0.22667 0.4319371,0.781677 0.1808378,3.186232 2.4350388,5.860074 5.5074848,6.532761 0.286537,0.0628 0.794334,0.13826 1.128444,0.16786 0.64077,0.0567 0.860512,0.17131 0.860457,0.448617 -4.3e-5,0.289817 -0.222593,0.400397 -0.749351,0.372317 -1.450202,-0.0772 -2.884814,-0.540427 -4.039601,-1.304171 -0.519737,-0.34375 -1.443138,-1.194124 -1.844018,-1.698181 z m 3.155404,-6.268704 c -0.276876,-0.702417 -0.07754,-1.323574 0.541516,-1.687481 0.911594,-0.535857 2.035033,0.24743 1.911419,1.332674 -0.03263,0.286487 -0.06309,0.338787 -0.384072,0.659664 -0.302698,0.3026 -0.388639,0.35664 -0.652409,0.41028 -0.357374,0.0727 -0.933989,-0.0936 -1.173415,-0.33849 -0.08709,-0.0891 -0.196514,-0.258617 -0.243039,-0.376647 z m 1.008931,-0.0823 c 0.149296,0.0665 0.480922,-0.0585 0.575975,-0.21726 0.207992,-0.347247 -0.04542,-0.764324 -0.446127,-0.734284 -0.281933,0.0212 -0.428867,0.16032 -0.46204,0.437617 -0.02524,0.21106 0.105139,0.412777 0.332194,0.513927 z m 2.79586,3.838049 c -0.133083,-0.35422 -0.147529,-0.548367 -0.0611,-0.820667 0.106925,-0.336867 0.288586,-0.576717 0.581771,-0.768064 0.21706,-0.1417 0.362806,-0.17811 0.694499,-0.17353 1.163436,0.0161 1.706846,1.354764 0.886069,2.182828 -0.38,0.383377 -0.878783,0.484587 -1.412182,0.286577 -0.341595,-0.126817 -0.552233,-0.342977 -0.689054,-0.707144 z m 1.036272,-0.004 c 0.149293,0.0665 0.480921,-0.0585 0.575974,-0.21728 0.204984,-0.342227 -0.05167,-0.763864 -0.446937,-0.734214 -0.281158,0.021 -0.428077,0.160467 -0.46123,0.437547 -0.02524,0.211047 0.105139,0.412767 0.332193,0.513947 z"
       id="path604-0-8-0-3"
       sodipodi:nodetypes="csssscssccssssssssssssssssssssssssssscssssssssssssssssssss" />
    <path
       style="fill:#000000;fill-opacity:1;stroke:#ff0000;stroke-width:0.135688;stroke-dasharray:none"
       d="m 9.0386502,9.4591885 7.3425598,7.6487145 0.142093,0.0208"
       id="path3536-8-9-7" />
    <path
       style="fill:#222b00;stroke-width:0.0694034"
       d="M 4.4113115,25.157788 C 4.3553544,25.078788 4.1351884,24.791031 3.9220411,24.518341 2.4485565,22.633103 1.390986,19.943358 1.1106824,17.368123 0.70012205,13.596234 1.7859885,9.8057855 4.1421618,6.786015 4.6720778,6.1068483 5.9998833,4.8030579 6.7421605,4.2330415 12.206916,0.03647759 19.909508,0.28356459 25.146437,4.8234379 30.979031,9.8796755 31.820231,18.680324 27.055205,24.793051 26.52966,25.467238 25.069202,26.902999 24.390956,27.412226 19.251032,31.271384 12.312713,31.353711 7.0550502,27.617913 6.5383377,27.250786 4.6475527,25.491295 4.4113115,25.157788 Z m 2.4339167,1.113874 c 2.0287488,1.664421 4.3439778,2.674375 6.9763168,3.043222 0.896347,0.12561 2.769739,0.12466 3.646816,-0.002 1.508211,-0.217557 3.221617,-0.772964 4.514755,-1.463511 4.443507,-2.372828 7.246074,-7.038081 7.234043,-12.042001 -0.0038,-1.617861 -0.227647,-2.924885 -0.769784,-4.496506 C 27.750317,9.2900985 26.759823,7.7134484 25.219226,6.1723583 23.706401,4.6590482 22.18299,3.6893848 20.241034,3.0037081 18.574162,2.4151614 17.259116,2.1811844 15.593885,2.1768644 7.3700121,2.1555644 0.99222142,9.4364885 2.0825134,17.60155 c 0.4518814,3.384082 2.2011483,6.568394 4.7627148,8.669972 z M 6.1828957,24.024674 C 3.5275376,20.982212 2.5143037,16.867006 3.4461991,12.909817 3.7091163,11.793353 4.2858997,10.363842 4.8571391,9.4128985 7.1321438,5.6257116 11.193194,3.3161948 15.576333,3.3169148 c 3.674079,6.7e-4 7.200925,1.6248001 9.51175,4.3803436 1.629388,1.9429471 2.536667,3.9915476 2.874725,6.4910026 0.518807,3.835929 -0.78545,7.666515 -3.547514,10.41896 -2.271287,2.263378 -4.954032,3.456942 -8.246091,3.668739 -3.630649,0.23359 -7.5154565,-1.420231 -9.9863073,-4.251286 z M 7.7584853,22.99086 c 0.3445765,-0.343717 0.6694855,-0.634387 0.7219077,-0.646067 0.2587047,-0.0575 0.6185954,0.30168 0.5609051,0.560067 -0.011809,0.053 -0.3060818,0.38152 -0.6539396,0.730087 l -0.6324664,0.633747 0.533177,0.472877 c 1.5287901,1.355941 4.2444089,2.459855 6.3238829,2.570695 l 0.487827,0.026 0.0088,-0.896984 c 0.0094,-0.943887 0.06799,-1.102434 0.431183,-1.166344 0.126254,-0.0222 0.235832,0.0177 0.343179,0.12511 0.133307,0.133347 0.15738,0.293857 0.155526,1.036994 l -0.0022,0.879254 0.227635,0.009 c 0.1252,0.004 0.518631,-0.0314 0.874284,-0.0806 2.044525,-0.282647 3.869618,-1.044914 5.489979,-2.292988 0.359869,-0.277177 0.686307,-0.535954 0.725412,-0.575054 0.05846,-0.0584 -0.04251,-0.18473 -0.566759,-0.709167 -0.57246,-0.572647 -0.637877,-0.658227 -0.637844,-0.834387 3.5e-5,-0.243887 0.224335,-0.478247 0.447039,-0.467097 0.132915,0.007 0.302498,0.13747 0.817248,0.630507 l 0.649539,0.622117 0.282631,-0.306287 c 1.075311,-1.165264 2.005153,-2.952585 2.452092,-4.713306 0.123404,-0.486127 0.361762,-2.099608 0.330055,-2.234055 -0.0099,-0.0419 -0.424219,-0.0803 -0.92072,-0.0852 -0.529751,-0.006 -0.943259,-0.0495 -1.000836,-0.10708 -0.05397,-0.054 -0.110531,-0.20212 -0.125689,-0.329177 -0.04841,-0.4059 0.125725,-0.481507 1.130982,-0.491157 1.049167,-0.0101 0.985245,0.0644 0.843594,-0.981847 C 26.776556,12.31467 26.092026,10.611802 24.860568,8.9117918 24.639716,8.6068918 24.370455,8.2688651 24.262223,8.1605851 L 24.065429,7.9637284 23.42925,8.5996818 c -0.591242,0.5910367 -0.650838,0.6354367 -0.84365,0.6285767 -0.114103,-0.004 -0.254335,-0.0543 -0.311624,-0.11157 -0.0573,-0.0573 -0.107462,-0.1975667 -0.111476,-0.3116667 -0.0068,-0.19281 0.03763,-0.25239 0.628874,-0.8434234 l 0.636167,-0.6359567 -0.196792,-0.19687 C 22.967531,6.865475 22.037887,6.1953583 21.450848,5.8457716 20.141314,5.0659349 18.633648,4.5530482 16.997464,4.3307982 15.979209,4.1924815 16.049959,4.1299615 16.039559,5.1772949 c -0.0098,0.9829834 -0.08532,1.1680834 -0.471288,1.1543534 -0.381762,-0.0136 -0.446869,-0.17959 -0.456316,-1.1635834 l -0.0087,-0.9160634 -0.396235,0.0339 c -1.803915,0.154347 -3.53363,0.7035244 -5.0520662,1.6039808 -0.5627674,0.333717 -1.8313022,1.2959704 -1.8581225,1.4094804 -0.010647,0.0451 0.2452676,0.3424167 0.6002999,0.6975664 0.506989,0.5071667 0.6203801,0.6499637 0.6273535,0.7900237 0.011207,0.22558 -0.221849,0.4501667 -0.467094,0.4501267 -0.1761702,-3e-5 -0.2617214,-0.0655 -0.8341793,-0.6381167 C 7.3723812,8.2480151 7.0734277,7.9727881 7.0588592,7.9873481 7.0443181,8.0018481 6.8411003,8.2514251 6.6072983,8.5418448 6.0937897,9.1797085 5.452855,10.203012 5.123046,10.911599 4.5882633,12.060533 4.1330436,13.782434 4.0746999,14.877048 l -0.024908,0.467267 0.892367,0.002 c 0.950244,0.002 1.167205,0.0859 1.1856979,0.457897 0.018262,0.367267 -0.2206961,0.462767 -1.1810078,0.471977 l -0.8969787,0.009 0.025962,0.490207 c 0.1135136,2.143108 1.3394141,5.08047 2.7046527,6.480574 L 7.1317939,23.616257 7.7583602,22.9914 Z m 0.5606405,-7.097708 c -0.036384,-0.18277 0.079951,-0.4157 0.2425713,-0.485657 0.087393,-0.0376 1.6622079,-0.0663 3.4995939,-0.0637 l 3.340723,0.004 2.393106,-2.392278 c 2.327666,-2.326875 2.398483,-2.392285 2.589411,-2.392255 0.107969,2e-5 0.251509,0.0552 0.318976,0.122727 0.06746,0.0675 0.12265,0.21105 0.122628,0.31902 -2.1e-5,0.191247 -0.06547,0.261717 -2.539361,2.734775 l -2.53935,2.538465 -3.559478,-6.6e-4 c -3.0992376,-6.5e-4 -3.5783405,-0.0196 -3.7051912,-0.14784 -0.080209,-0.081 -0.1537722,-0.187767 -0.163629,-0.237307 z"
       id="path604-6-3-5"
       sodipodi:nodetypes="ssssssssssssssssssssssssssssssscsscsscsssscsssssssscsssssssssscssssscsssssscssssssssssscssscssccsssscssssscscs" />
    <ellipse
       style="fill:url(#radialGradient8315-5-6);fill-opacity:1;stroke-width:0.07141"
       id="path944-6-9"
       cx="192.60207"
       cy="-109.85098"
       rx="14.871086"
       ry="14.776621"
       transform="matrix(0.69442753,0.71956265,-0.69466829,0.71933022,0,0)" />
    <g
       id="g3672"
       transform="matrix(1.0000023,0,0,1,23.317059,-167.71962)"
       style="fill:#f9f9f9">
      <g
         aria-label="human"
         transform="matrix(0.66373236,0.00168779,-0.00168779,0.66373236,-95.791857,162.2772)"
         id="text1000-4-7"
         style="font-weight:bold;font-size:30.6379px;font-family:'Noto Sans Devanagari';-inkscape-font-specification:'Noto Sans Devanagari, Bold';fill:#f9f9f9;stroke-width:0.818075">
        <path
           d="m 180.42416,30.55159 v 10.20266 h -5.38557 v -1.660551 -6.118604 q 0,-2.199107 -0.10472,-3.021902 -0.0898,-0.822795 -0.32912,-1.211753 -0.31415,-0.523597 -0.85271,-0.807835 -0.53856,-0.299198 -1.22671,-0.299198 -1.67551,0 -2.63295,1.301512 -0.95743,1.286553 -0.95743,3.575419 V 40.75425 H 163.5793 V 17.476627 h 5.35565 v 8.975947 q 1.21175,-1.466071 2.5731,-2.154227 1.36136,-0.703116 3.00695,-0.703116 2.90222,0 4.39821,1.780229 1.51095,1.78023 1.51095,5.17613 z"
           id="path7360"
           style="fill:#f9f9f9" />
        <path
           d="m 185.21133,34.231728 v -10.23258 h 5.38557 v 1.67551 q 0,1.361352 -0.015,3.42582 -0.015,2.049508 -0.015,2.737664 0,2.019588 0.10472,2.917183 0.10472,0.882635 0.35904,1.286552 0.32912,0.523597 0.85271,0.807836 0.53856,0.284238 1.22672,0.284238 1.67551,0 2.63294,-1.286553 0.95744,-1.286552 0.95744,-3.575418 v -8.272832 h 5.35564 V 40.75425 h -5.35564 v -2.423506 q -1.21176,1.466071 -2.57311,2.169187 -1.34639,0.688156 -2.97702,0.688156 -2.90222,0 -4.42814,-1.780229 -1.51095,-1.78023 -1.51095,-5.17613 z"
           id="path7362"
           style="fill:#f9f9f9" />
        <path
           d="m 222.73079,26.781692 q 1.01728,-1.555831 2.40855,-2.363666 1.40623,-0.822795 3.08174,-0.822795 2.88726,0 4.39821,1.780229 1.51096,1.78023 1.51096,5.17613 v 10.20266 h -5.38557 v -8.736589 q 0.015,-0.194479 0.015,-0.403918 0.015,-0.209438 0.015,-0.598396 0,-1.78023 -0.5236,-2.573105 -0.5236,-0.807835 -1.69047,-0.807835 -1.52591,0 -2.36367,1.256633 -0.82279,1.256632 -0.85271,3.635258 v 8.227952 h -5.38557 v -8.736589 q 0,-2.782544 -0.47872,-3.575419 -0.47871,-0.807835 -1.70543,-0.807835 -1.54087,0 -2.37862,1.271592 -0.83776,1.256633 -0.83776,3.605339 v 8.242912 h -5.38557 V 23.999148 h 5.38557 v 2.453426 q 0.98736,-1.421192 2.25895,-2.139268 1.28655,-0.718075 2.82742,-0.718075 1.73535,0 3.06678,0.837755 1.33144,0.837755 2.01959,2.348706 z"
           id="path7364"
           style="fill:#f9f9f9" />
        <path
           d="m 246.63673,33.214454 q -1.67551,0 -2.52823,0.568477 -0.83775,0.568476 -0.83775,1.67551 0,1.017274 0.6732,1.60071 0.68815,0.568477 1.8999,0.568477 1.51096,0 2.54319,-1.077114 1.03223,-1.092073 1.03223,-2.722704 v -0.613356 z m 8.18307,-2.019588 v 9.559384 h -5.40053 v -2.483346 q -1.07711,1.525911 -2.4235,2.229027 -1.34639,0.688156 -3.27622,0.688156 -2.60303,0 -4.23366,-1.510951 -1.61567,-1.525911 -1.61567,-3.949417 0,-2.947102 2.01959,-4.323414 2.03455,-1.376312 6.37292,-1.376312 h 3.15654 v -0.418878 q 0,-1.271592 -1.00231,-1.855029 -1.00231,-0.598396 -3.12662,-0.598396 -1.72039,0 -3.20142,0.344078 -1.48103,0.344078 -2.75263,1.032234 v -4.084056 q 1.72039,-0.418878 3.45574,-0.628317 1.73535,-0.224398 3.4707,-0.224398 4.53286,0 6.53748,1.795189 2.01959,1.78023 2.01959,5.804446 z"
           id="path7366"
           style="fill:#f9f9f9" />
        <path
           d="m 276.64631,30.55159 v 10.20266 h -5.38556 v -1.660551 -6.148523 q 0,-2.169188 -0.10472,-2.991983 -0.0898,-0.822795 -0.32912,-1.211753 -0.31416,-0.523597 -0.85272,-0.807835 -0.53855,-0.299198 -1.22671,-0.299198 -1.67551,0 -2.63294,1.301512 -0.95744,1.286553 -0.95744,3.575419 v 8.242912 h -5.35565 V 23.999148 h 5.35565 v 2.453426 q 1.21175,-1.466071 2.57311,-2.154227 1.36135,-0.703116 3.00694,-0.703116 2.90222,0 4.39821,1.780229 1.51095,1.78023 1.51095,5.17613 z"
           id="path7368"
           style="fill:#f9f9f9" />
      </g>
      <g
         aria-label="ti.me"
         transform="matrix(0.66348875,-0.01806041,0.01806041,0.66348875,-93.350359,149.90084)"
         id="text1000-2-9-3"
         style="font-weight:bold;font-size:30.6379px;font-family:'Noto Sans Devanagari';-inkscape-font-specification:'Noto Sans Devanagari, Bold';fill:#f9f9f9;stroke-width:0.818075">
        <path
           d="m 284.02839,46.467276 v 4.757252 h 5.5202 v 3.829738 h -5.5202 v 7.105958 q 0,1.166873 0.46375,1.58575 0.46376,0.403918 1.84007,0.403918 h 2.75263 v 3.829738 h -4.5927 q -3.1715,0 -4.50293,-1.316473 -1.31647,-1.331432 -1.31647,-4.502933 v -7.105958 h -2.66287 v -3.829738 h 2.66287 v -4.757252 z"
           style="fill:#f9f9f9"
           id="path7381" />
        <path
           d="m 292.82482,51.224528 h 5.35564 V 67.97963 h -5.35564 z m 0,-6.522521 h 5.35564 v 4.368294 h -5.35564 z"
           style="fill:#f9f9f9"
           id="path7383" />
        <path
           d="m 302.49993,65.834977 q 0,-1.409344 0.76595,-1.960826 0.76594,-0.58212 1.86891,-0.58212 1.07232,0 1.83827,0.58212 0.76595,0.551482 0.76595,1.960826 0,1.348067 -0.76595,1.960825 -0.76595,0.58212 -1.83827,0.58212 -1.10297,0 -1.86891,-0.58212 -0.76595,-0.612758 -0.76595,-1.960825 z"
           style="fill:#f9f9f9"
           id="path7385" />
        <path
           d="m 327.58686,54.007072 q 1.01727,-1.555831 2.40855,-2.363666 1.40623,-0.822795 3.08174,-0.822795 2.88726,0 4.39821,1.780229 1.51095,1.78023 1.51095,5.17613 v 10.20266 h -5.38557 v -8.736589 q 0.015,-0.194479 0.015,-0.403918 0.015,-0.209438 0.015,-0.598396 0,-1.78023 -0.52359,-2.573105 -0.5236,-0.807835 -1.69047,-0.807835 -1.52591,0 -2.36367,1.256632 -0.82279,1.256633 -0.85271,3.635259 v 8.227952 h -5.38557 v -8.736589 q 0,-2.782544 -0.47872,-3.575419 -0.47872,-0.807835 -1.70543,-0.807835 -1.54087,0 -2.37862,1.271592 -0.83776,1.256633 -0.83776,3.605339 v 8.242912 h -5.38557 V 51.224528 h 5.38557 v 2.453426 q 0.98735,-1.421192 2.25895,-2.139268 1.28655,-0.718075 2.82742,-0.718075 1.73535,0 3.06678,0.837755 1.33143,0.837755 2.01959,2.348706 z"
           style="fill:#f9f9f9"
           id="path7387" />
        <path
           d="m 360.70811,59.557199 v 1.525911 h -12.52145 q 0.19448,1.884949 1.36135,2.827424 1.16688,0.942474 3.26126,0.942474 1.69047,0 3.45574,-0.493677 1.78023,-0.508637 3.65022,-1.525911 v 4.128936 q -1.89991,0.718075 -3.79982,1.077113 -1.8999,0.373998 -3.79981,0.373998 -4.54782,0 -7.07604,-2.303826 -2.51327,-2.318787 -2.51327,-6.492602 0,-4.099016 2.46839,-6.447722 2.48334,-2.348706 6.82172,-2.348706 3.94941,0 6.31308,2.378626 2.37863,2.378626 2.37863,6.357962 z m -5.50525,-1.780229 q 0,-1.525911 -0.8976,-2.453426 -0.88263,-0.942474 -2.31878,-0.942474 -1.55583,0 -2.52823,0.882634 -0.97239,0.867675 -1.21175,2.513266 z"
           style="fill:#f9f9f9"
           id="path7389" />
      </g>
      <rect
         style="fill:#f9f9f9;stroke:none;stroke-width:0.41105"
         id="rect7054-9"
         width="14.892577"
         height="2.3149259"
         x="98.158989"
         y="189.17175"
         transform="rotate(1.8803203)" />
      <rect
         style="fill:#f9f9f9;stroke:none;stroke-width:0.360167"
         id="rect7054-9-0"
         width="11.449335"
         height="2.3117709"
         x="70.975372"
         y="171.83978"
         transform="matrix(0.99992816,0.01198679,0.03149321,0.99950397,0,0)" />
    </g>
  </g>
</svg>
