<?xml version="1.0" encoding="UTF-8" standalone="no"?>
<!-- Created with Inkscape (http://www.inkscape.org/) -->

<svg
   width="180mm"
   height="35mm"
   viewBox="0 0 180 35"
   version="1.1"
   id="svg2258"
   inkscape:version="1.2.1 (9c6d41e410, 2022-07-14)"
   sodipodi:docname="humantime21.svg"
   xmlns:inkscape="http://www.inkscape.org/namespaces/inkscape"
   xmlns:sodipodi="http://sodipodi.sourceforge.net/DTD/sodipodi-0.dtd"
   xmlns:xlink="http://www.w3.org/1999/xlink"
   xmlns="http://www.w3.org/2000/svg"
   xmlns:svg="http://www.w3.org/2000/svg">
  <sodipodi:namedview
     id="namedview2260"
     pagecolor="#ffffff"
     bordercolor="#000000"
     borderopacity="0.25"
     inkscape:showpageshadow="2"
     inkscape:pageopacity="0.0"
     inkscape:pagecheckerboard="0"
     inkscape:deskcolor="#d1d1d1"
     inkscape:document-units="mm"
     showgrid="false"
     inkscape:zoom="1.1893044"
     inkscape:cx="319.93492"
     inkscape:cy="84.923591"
     inkscape:window-width="1920"
     inkscape:window-height="951"
     inkscape:window-x="0"
     inkscape:window-y="32"
     inkscape:window-maximized="1"
     inkscape:current-layer="layer1"
     showguides="true">
    <sodipodi:guide
       position="100.36335,85.363353"
       orientation="1,0"
       id="guide4929"
       inkscape:locked="false" />
    <sodipodi:guide
       position="111.375,94.959223"
       orientation="1,0"
       id="guide4931"
       inkscape:locked="false" />
    <sodipodi:guide
       position="114.67849,99.678505"
       orientation="1,0"
       id="guide4933"
       inkscape:locked="false" />
    <sodipodi:guide
       position="129.15095,103.29661"
       orientation="1,0"
       id="guide4935"
       inkscape:locked="false" />
  </sodipodi:namedview>
  <defs
     id="defs2255">
    <radialGradient
       inkscape:collect="always"
       xlink:href="#linearGradient2012"
       id="radialGradient2006"
       cx="716.79858"
       cy="43.577091"
       fx="716.79858"
       fy="43.577091"
       r="63.357662"
       gradientTransform="matrix(0.23820244,0,0,0.24502193,-153.01365,-0.68440058)"
       gradientUnits="userSpaceOnUse"
       spreadMethod="pad" />
    <linearGradient
       inkscape:collect="always"
       id="linearGradient2012">
      <stop
         style="stop-color:#ffffff;stop-opacity:1;"
         offset="0"
         id="stop2008" />
      <stop
         style="stop-color:#f8f8f8;stop-opacity:0.13495384;"
         offset="0.62044322"
         id="stop2010" />
    </linearGradient>
    <radialGradient
       inkscape:collect="always"
       xlink:href="#linearGradient2018"
       id="radialGradient8213-6-3-0"
       cx="295.2153"
       cy="-77.907059"
       fx="295.2153"
       fy="-77.907059"
       r="54.63723"
       gradientTransform="matrix(0.22997338,0,0,0.22851462,-41.762642,15.582259)"
       gradientUnits="userSpaceOnUse" />
    <linearGradient
       inkscape:collect="always"
       id="linearGradient2018">
      <stop
         style="stop-color:#94fff9;stop-opacity:1;"
         offset="0"
         id="stop2014" />
      <stop
         style="stop-color:#ffffff;stop-opacity:0.14548685;"
         offset="1"
         id="stop2016" />
    </linearGradient>
  </defs>
  <g
     inkscape:label="Layer 1"
     inkscape:groupmode="layer"
     id="layer1">
    <ellipse
       style="fill:#f9f9f9;stroke-width:0.0605528"
       id="path732-2-2-7"
       cx="25.143312"
       cy="-1.4364291"
       rx="17.198494"
       ry="17.172123"
       transform="matrix(0.69698282,0.71708782,-0.69722281,0.71685448,0,0)" />
    <ellipse
       id="path1872-8-9-9"
       style="fill:#000000;stroke:#000000;stroke-width:0.122906"
       cx="17.20134"
       cy="21.440994"
       rx="0.14509785"
       ry="0.14923333" />
    <ellipse
       id="path2237-8-1-2"
       style="fill:#000000;stroke:#000000;stroke-width:0.0639161"
       cx="6.8258376"
       cy="10.269053"
       rx="0.10671224"
       ry="0.10975368" />
    <ellipse
       style="fill:#7fff2a;fill-opacity:1;stroke:none;stroke-width:0.149207"
       id="path7697-2-2-0"
       cx="18.591984"
       cy="17.221046"
       rx="15.091949"
       ry="15.524016" />
    <ellipse
       style="fill:url(#radialGradient2006);fill-opacity:1;stroke:none;stroke-width:0.149207"
       id="path7697-2-2-0-0"
       cx="17.729523"
       cy="9.9940386"
       rx="15.091949"
       ry="15.524016" />
    <ellipse
       style="fill:url(#radialGradient8213-6-3-0);fill-opacity:1;stroke-width:0.0603372"
       id="path944-8-7-2"
       cx="26.128578"
       cy="-2.2207663"
       rx="12.565108"
       ry="12.485407"
       transform="matrix(0.70401304,0.71018705,-0.7042508,0.70995128,0,0)" />
    <path
       style="fill:#000000;stroke-width:0.0706884"
       d="M 8.0099724,26.18509 C 6.7650884,24.637669 5.7329592,22.408341 5.3149477,20.363963 4.7981917,17.836598 4.9570262,15.209153 5.7704592,12.829165 7.5047767,7.7547865 11.893223,4.1691496 17.075544,3.5921729 c 3.401832,-0.37875 6.810414,0.5774167 9.560785,2.6819635 0.874924,0.6694834 2.13153,1.9606468 2.761456,2.8372702 1.986249,2.7646644 2.912028,6.1107464 2.62438,9.4855554 -0.604173,7.088741 -6.24862,12.561571 -13.135301,12.735928 -4.229287,0.10709 -8.137251,-1.742508 -10.8768244,-5.14787 z m 3.4093066,2.013248 c 2.195569,1.483881 4.507845,2.218398 7.032073,2.233818 7.054008,0.0431 12.718743,-5.748237 12.719932,-13.004165 0,-2.706995 -0.769951,-5.256493 -2.250579,-7.4479877 C 28.349726,9.1348866 26.926145,7.6162865 26.127337,7.0001998 23.160969,4.712326 19.224443,3.8857496 15.577682,4.784993 14.086984,5.152583 12.505091,5.8784564 11.283715,6.7553631 10.542501,7.2875298 9.2068767,8.5766699 8.6644748,9.2834766 6.8411826,11.659361 5.8922771,14.446306 5.8917937,17.426891 c 0,2.031558 0.4131914,3.868776 1.2867814,5.716977 0.7248117,1.533411 1.2892806,2.316545 2.6200321,3.635019 0.7841168,0.776864 1.1701218,1.114944 1.6206718,1.419451 z m 1.84443,-6.834861 c -1.046231,-1.353021 -1.750421,-3.298792 -1.824066,-5.04017 -0.02841,-0.671687 0.08147,-0.919117 0.408193,-0.919057 0.300809,5e-5 0.437695,0.25482 0.472124,0.878747 0.197663,3.581969 2.661599,6.587901 6.019908,7.344108 0.313196,0.0705 0.868239,0.15545 1.233434,0.188717 0.700389,0.0638 0.940576,0.1926 0.940516,0.50434 -4.7e-5,0.325817 -0.243302,0.450127 -0.819071,0.418567 -1.58513,-0.0869 -3.15322,-0.607567 -4.41545,-1.466154 -0.568094,-0.386437 -1.57741,-1.342431 -2.015588,-1.909098 z m 3.448988,-7.047251 c -0.302639,-0.789654 -0.08476,-1.487961 0.591897,-1.897058 0.996409,-0.602407 2.224376,0.278147 2.089261,1.498191 -0.03567,0.32206 -0.06896,0.380867 -0.419806,0.741587 -0.330863,0.340177 -0.424799,0.400937 -0.713112,0.461237 -0.390623,0.0817 -1.020888,-0.1053 -1.28259,-0.380537 -0.0952,-0.10024 -0.214798,-0.29073 -0.26565,-0.42342 z m 1.102801,-0.0925 c 0.163187,0.0748 0.525668,-0.0658 0.629565,-0.24425 0.227343,-0.390367 -0.04964,-0.859254 -0.487636,-0.825464 -0.308163,0.0237 -0.468769,0.180217 -0.505028,0.491967 -0.0276,0.237257 0.114926,0.464027 0.363102,0.577757 z m 3.055991,4.314716 c -0.145466,-0.398207 -0.161256,-0.616464 -0.06679,-0.922574 0.116876,-0.378717 0.315435,-0.648347 0.6359,-0.863484 0.237255,-0.15927 0.396562,-0.20021 0.759116,-0.19506 1.271682,0.018 1.865651,1.523011 0.96851,2.453908 -0.415357,0.431007 -0.960547,0.544797 -1.543574,0.322177 -0.373377,-0.14256 -0.603614,-0.385567 -0.753165,-0.794967 z m 1.132688,-0.005 c 0.163183,0.0748 0.525665,-0.0658 0.629562,-0.244257 0.224058,-0.384717 -0.05648,-0.858724 -0.48852,-0.825397 -0.307317,0.0237 -0.467906,0.18041 -0.504143,0.4919 -0.0276,0.237257 0.114925,0.464027 0.363101,0.577754 z"
       id="path604-0-8-0-3"
       sodipodi:nodetypes="csssscssccssssssssssssssssssssssssssscssssssssssssssssssss" />
    <path
       style="fill:#000000;fill-opacity:1;stroke:#ff0000;stroke-width:0.150411;stroke-dasharray:none"
       d="m 11.464468,10.20997 8.025721,8.598662 0.155312,0.0234"
       id="path3536-8-9-7" />
    <path
       style="fill:#222b00;stroke-width:0.0769345"
       d="M 6.4065962,27.858281 C 6.3454392,27.769481 6.1047837,27.445994 5.8718018,27.139424 4.2612222,25.020056 3.1052544,21.996244 2.7988769,19.101179 2.3501123,14.860833 3.5370078,10.599617 6.1124032,7.2047998 6.6916257,6.4412931 8.1429712,4.975573 8.9543103,4.3347563 14.927513,-0.38301391 23.346763,-0.10523391 29.070941,4.998473 c 6.375265,5.684204 7.294731,15.57788 2.086363,22.449781 -0.574444,0.757914 -2.170785,2.371995 -2.912135,2.944472 -5.618147,4.338456 -13.202016,4.431006 -18.9488569,0.23124 -0.5647877,-0.41274 -2.6314922,-2.390738 -2.8897159,-2.765685 z m 2.6603718,1.252221 c 2.217505,1.871141 4.748146,3.006535 7.6254,3.421212 0.979744,0.1412 3.027438,0.14011 3.98612,-0.002 1.648537,-0.24458 3.52136,-0.868974 4.934813,-1.645271 4.856937,-2.667535 7.920258,-7.912205 7.907107,-13.537592 C 33.516208,15.52805 33.27158,14.058709 32.679003,12.291888 31.917089,10.020153 30.834439,8.2476932 29.150503,6.5151931 27.496923,4.813943 25.831771,3.7238396 23.709135,2.9530062 21.887174,2.2913595 20.449775,2.0283228 18.629608,2.0234728 9.6405789,1.9995728 2.6693925,10.18472 3.8611283,19.363859 4.3550527,23.168228 6.2670689,26.748037 9.066968,29.110612 Z M 8.3430114,26.584447 C 5.4405989,23.164118 4.3330871,18.537812 5.3516891,14.089149 5.6390682,12.834035 6.2695192,11.226984 6.8939014,10.15794 9.3805783,5.9003764 13.819473,3.3040329 18.610423,3.3048529 c 4.015919,6.8e-4 7.870907,1.8265901 10.396734,4.9243503 1.780988,2.1842668 2.772681,4.4873018 3.142193,7.2971768 0.567077,4.312346 -0.858529,8.618682 -3.877579,11.712974 -2.48261,2.544475 -5.41496,3.886289 -9.013316,4.124386 -3.968449,0.26259 -8.214702,-1.596621 -10.9154436,-4.779293 z m 1.7221846,-1.162214 c 0.376636,-0.386397 0.731774,-0.713174 0.789074,-0.726294 0.282775,-0.0647 0.67615,0.339127 0.613092,0.629617 -0.01291,0.0596 -0.33456,0.428907 -0.714783,0.820764 l -0.691311,0.712457 0.582784,0.531617 c 1.67103,1.524331 4.639314,2.765342 6.912263,2.889962 l 0.533217,0.0292 0.0097,-1.008374 c 0.01017,-1.061104 0.07431,-1.239334 0.4713,-1.311191 0.138,-0.025 0.257773,0.0199 0.375109,0.140647 0.145708,0.1499 0.17202,0.33036 0.169995,1.165794 l -0.0024,0.988424 0.248816,0.01 c 0.136848,0.005 0.566884,-0.0352 0.955628,-0.0905 2.234749,-0.317747 4.229651,-1.174701 6.000772,-2.577775 0.393351,-0.311607 0.750162,-0.602517 0.792905,-0.646467 0.0639,-0.0657 -0.04645,-0.207677 -0.619491,-0.797244 -0.625723,-0.643767 -0.697226,-0.739977 -0.69719,-0.938024 3.8e-5,-0.27417 0.245208,-0.537637 0.488632,-0.525117 0.145282,0.008 0.330644,0.154557 0.893285,0.708824 l 0.709974,0.699367 0.308927,-0.344317 c 1.175361,-1.309974 2.191716,-3.319282 2.680238,-5.29867 0.134885,-0.546507 0.395421,-2.360388 0.360765,-2.511535 -0.01079,-0.0472 -0.46369,-0.0903 -1.006386,-0.0958 -0.57904,-0.006 -1.031022,-0.0557 -1.093955,-0.12042 -0.059,-0.0607 -0.120816,-0.22723 -0.137383,-0.370067 -0.05291,-0.45631 0.137421,-0.541317 1.236209,-0.552167 1.146782,-0.0113 1.076915,0.0723 0.922084,-1.103774 C 30.852815,13.419982 30.104594,11.505634 28.75856,9.5944633 28.517161,9.2517066 28.222847,8.8716899 28.104544,8.7499699 l -0.215104,-0.22132 -0.69537,0.7149467 c -0.64625,0.6644467 -0.711391,0.7143567 -0.922144,0.7066467 -0.124718,-0.005 -0.277999,-0.061 -0.340617,-0.12542 -0.06264,-0.0644 -0.11746,-0.22211 -0.121848,-0.350377 -0.0074,-0.2167697 0.04113,-0.2837397 0.687386,-0.9481964 l 0.695356,-0.7149334 -0.215102,-0.22131 C 26.689393,7.2940098 25.673255,6.5406531 25.031597,6.1476564 23.600222,5.2709727 21.95228,4.6943863 20.163863,4.4445363 c -1.112994,-0.15549 -1.035662,-0.225777 -1.047028,0.9516134 -0.01067,1.1050734 -0.09327,1.3131634 -0.515137,1.2977234 -0.417283,-0.0153 -0.488446,-0.2019 -0.498772,-1.3080834 l -0.0096,-1.0298434 -0.433101,0.0381 c -1.971754,0.17352 -3.862405,0.7908967 -5.522116,1.8031901 -0.615129,0.3751667 -2.001689,1.4569301 -2.031004,1.5845301 -0.01163,0.0506 0.268087,0.3849467 0.656152,0.7842134 0.554159,0.5701367 0.6781,0.7306867 0.685723,0.8881367 0.01225,0.2535867 -0.242491,0.5060767 -0.510554,0.5060267 -0.19256,-2e-5 -0.286071,-0.0736 -0.911791,-0.7173667 C 9.6431625,8.8482499 9.3163944,8.5388299 9.3004706,8.5551999 9.2845806,8.5715999 9.0624517,8.8520799 8.806896,9.1785666 8.2456098,9.8956633 7.5450442,11.046067 7.1845449,11.842641 6.6000055,13.134275 6.1024358,15.070023 6.0386603,16.300587 l -0.027256,0.525307 0.9753891,0.002 c 1.038661,0.003 1.2758065,0.0966 1.2960207,0.514767 0.019958,0.412887 -0.2412278,0.520247 -1.2908918,0.530597 l -0.9804307,0.01 0.028397,0.551097 c 0.1240802,2.409265 1.4640369,5.711447 2.9563001,7.285438 l 0.3839943,0.405037 0.684863,-0.702457 z m 0.612802,-7.979212 c -0.03976,-0.20547 0.08739,-0.46734 0.265141,-0.545987 0.09552,-0.0423 1.81686,-0.0745 3.825199,-0.0716 l 3.651547,0.005 2.615763,-2.689405 c 2.544236,-2.615855 2.621642,-2.689395 2.830334,-2.689365 0.118015,2e-5 0.274909,0.0621 0.348654,0.13799 0.07374,0.0759 0.13406,0.237247 0.134037,0.358617 -2.4e-5,0.214997 -0.07156,0.294237 -2.775626,3.074422 l -2.775613,2.853745 -3.890657,-6.8e-4 c -3.387594,-6.8e-4 -3.911272,-0.0221 -4.049925,-0.16621 -0.08767,-0.091 -0.16808,-0.2111 -0.178854,-0.266777 z"
       id="path604-6-3-5"
       sodipodi:nodetypes="ssssssssssssssssssssssssssssssscsscsscsssscsssssssscsssssssssscssssscsssssscssssssssssscssscssccsssscssssscscs" />
    <ellipse
       style="fill:#ffffff;fill-opacity:1;stroke-width:0.00963441"
       id="path944-6-9"
       cx="50.690147"
       cy="-39.753376"
       rx="2.0063505"
       ry="1.9936292"
       transform="matrix(0.70698914,0.7072244,-0.70722592,0.70698762,0,0)" />
    <g
       id="g3672"
       transform="translate(27.433297,-166.74905)"
       style="fill:#ffffff">
      <g
         aria-label="human"
         transform="matrix(0.66373236,0.00168779,-0.00168779,0.66373236,-95.791857,162.2772)"
         id="text1000-4-7"
         style="font-weight:bold;font-size:30.6379px;font-family:'Noto Sans Devanagari';-inkscape-font-specification:'Noto Sans Devanagari, Bold';fill:#ffffff;stroke-width:0.818075">
        <path
           d="m 180.42416,30.55159 v 10.20266 h -5.38557 v -1.660551 -6.118604 q 0,-2.199107 -0.10472,-3.021902 -0.0898,-0.822795 -0.32912,-1.211753 -0.31415,-0.523597 -0.85271,-0.807835 -0.53856,-0.299198 -1.22671,-0.299198 -1.67551,0 -2.63295,1.301512 -0.95743,1.286553 -0.95743,3.575419 V 40.75425 H 163.5793 V 17.476627 h 5.35565 v 8.975947 q 1.21175,-1.466071 2.5731,-2.154227 1.36136,-0.703116 3.00695,-0.703116 2.90222,0 4.39821,1.780229 1.51095,1.78023 1.51095,5.17613 z"
           id="path7360"
           style="fill:#ffffff" />
        <path
           d="m 185.21133,34.231728 v -10.23258 h 5.38557 v 1.67551 q 0,1.361352 -0.015,3.42582 -0.015,2.049508 -0.015,2.737664 0,2.019588 0.10472,2.917183 0.10472,0.882635 0.35904,1.286552 0.32912,0.523597 0.85271,0.807836 0.53856,0.284238 1.22672,0.284238 1.67551,0 2.63294,-1.286553 0.95744,-1.286552 0.95744,-3.575418 v -8.272832 h 5.35564 V 40.75425 h -5.35564 v -2.423506 q -1.21176,1.466071 -2.57311,2.169187 -1.34639,0.688156 -2.97702,0.688156 -2.90222,0 -4.42814,-1.780229 -1.51095,-1.78023 -1.51095,-5.17613 z"
           id="path7362"
           style="fill:#ffffff" />
        <path
           d="m 222.73079,26.781692 q 1.01728,-1.555831 2.40855,-2.363666 1.40623,-0.822795 3.08174,-0.822795 2.88726,0 4.39821,1.780229 1.51096,1.78023 1.51096,5.17613 v 10.20266 h -5.38557 v -8.736589 q 0.015,-0.194479 0.015,-0.403918 0.015,-0.209438 0.015,-0.598396 0,-1.78023 -0.5236,-2.573105 -0.5236,-0.807835 -1.69047,-0.807835 -1.52591,0 -2.36367,1.256633 -0.82279,1.256632 -0.85271,3.635258 v 8.227952 h -5.38557 v -8.736589 q 0,-2.782544 -0.47872,-3.575419 -0.47871,-0.807835 -1.70543,-0.807835 -1.54087,0 -2.37862,1.271592 -0.83776,1.256633 -0.83776,3.605339 v 8.242912 h -5.38557 V 23.999148 h 5.38557 v 2.453426 q 0.98736,-1.421192 2.25895,-2.139268 1.28655,-0.718075 2.82742,-0.718075 1.73535,0 3.06678,0.837755 1.33144,0.837755 2.01959,2.348706 z"
           id="path7364"
           style="fill:#ffffff" />
        <path
           d="m 246.63673,33.214454 q -1.67551,0 -2.52823,0.568477 -0.83775,0.568476 -0.83775,1.67551 0,1.017274 0.6732,1.60071 0.68815,0.568477 1.8999,0.568477 1.51096,0 2.54319,-1.077114 1.03223,-1.092073 1.03223,-2.722704 v -0.613356 z m 8.18307,-2.019588 v 9.559384 h -5.40053 v -2.483346 q -1.07711,1.525911 -2.4235,2.229027 -1.34639,0.688156 -3.27622,0.688156 -2.60303,0 -4.23366,-1.510951 -1.61567,-1.525911 -1.61567,-3.949417 0,-2.947102 2.01959,-4.323414 2.03455,-1.376312 6.37292,-1.376312 h 3.15654 v -0.418878 q 0,-1.271592 -1.00231,-1.855029 -1.00231,-0.598396 -3.12662,-0.598396 -1.72039,0 -3.20142,0.344078 -1.48103,0.344078 -2.75263,1.032234 v -4.084056 q 1.72039,-0.418878 3.45574,-0.628317 1.73535,-0.224398 3.4707,-0.224398 4.53286,0 6.53748,1.795189 2.01959,1.78023 2.01959,5.804446 z"
           id="path7366"
           style="fill:#ffffff" />
        <path
           d="m 276.64631,30.55159 v 10.20266 h -5.38556 v -1.660551 -6.148523 q 0,-2.169188 -0.10472,-2.991983 -0.0898,-0.822795 -0.32912,-1.211753 -0.31416,-0.523597 -0.85272,-0.807835 -0.53855,-0.299198 -1.22671,-0.299198 -1.67551,0 -2.63294,1.301512 -0.95744,1.286553 -0.95744,3.575419 v 8.242912 h -5.35565 V 23.999148 h 5.35565 v 2.453426 q 1.21175,-1.466071 2.57311,-2.154227 1.36135,-0.703116 3.00694,-0.703116 2.90222,0 4.39821,1.780229 1.51095,1.78023 1.51095,5.17613 z"
           id="path7368"
           style="fill:#ffffff" />
      </g>
      <g
         aria-label="ti.me"
         transform="matrix(0.66348875,-0.01806041,0.01806041,0.66348875,-93.350359,149.90084)"
         id="text1000-2-9-3"
         style="font-weight:bold;font-size:30.6379px;font-family:'Noto Sans Devanagari';-inkscape-font-specification:'Noto Sans Devanagari, Bold';fill:#ffffff;stroke-width:0.818075">
        <path
           d="m 284.02839,46.467276 v 4.757252 h 5.5202 v 3.829738 h -5.5202 v 7.105958 q 0,1.166873 0.46375,1.58575 0.46376,0.403918 1.84007,0.403918 h 2.75263 v 3.829738 h -4.5927 q -3.1715,0 -4.50293,-1.316473 -1.31647,-1.331432 -1.31647,-4.502933 v -7.105958 h -2.66287 v -3.829738 h 2.66287 v -4.757252 z"
           style="fill:#ffffff"
           id="path7381" />
        <path
           d="m 292.82482,51.224528 h 5.35564 V 67.97963 h -5.35564 z m 0,-6.522521 h 5.35564 v 4.368294 h -5.35564 z"
           style="fill:#ffffff"
           id="path7383" />
        <path
           d="m 302.49993,65.834977 q 0,-1.409344 0.76595,-1.960826 0.76594,-0.58212 1.86891,-0.58212 1.07232,0 1.83827,0.58212 0.76595,0.551482 0.76595,1.960826 0,1.348067 -0.76595,1.960825 -0.76595,0.58212 -1.83827,0.58212 -1.10297,0 -1.86891,-0.58212 -0.76595,-0.612758 -0.76595,-1.960825 z"
           style="fill:#ffffff"
           id="path7385" />
        <path
           d="m 327.58686,54.007072 q 1.01727,-1.555831 2.40855,-2.363666 1.40623,-0.822795 3.08174,-0.822795 2.88726,0 4.39821,1.780229 1.51095,1.78023 1.51095,5.17613 v 10.20266 h -5.38557 v -8.736589 q 0.015,-0.194479 0.015,-0.403918 0.015,-0.209438 0.015,-0.598396 0,-1.78023 -0.52359,-2.573105 -0.5236,-0.807835 -1.69047,-0.807835 -1.52591,0 -2.36367,1.256632 -0.82279,1.256633 -0.85271,3.635259 v 8.227952 h -5.38557 v -8.736589 q 0,-2.782544 -0.47872,-3.575419 -0.47872,-0.807835 -1.70543,-0.807835 -1.54087,0 -2.37862,1.271592 -0.83776,1.256633 -0.83776,3.605339 v 8.242912 h -5.38557 V 51.224528 h 5.38557 v 2.453426 q 0.98735,-1.421192 2.25895,-2.139268 1.28655,-0.718075 2.82742,-0.718075 1.73535,0 3.06678,0.837755 1.33143,0.837755 2.01959,2.348706 z"
           style="fill:#ffffff"
           id="path7387" />
        <path
           d="m 360.70811,59.557199 v 1.525911 h -12.52145 q 0.19448,1.884949 1.36135,2.827424 1.16688,0.942474 3.26126,0.942474 1.69047,0 3.45574,-0.493677 1.78023,-0.508637 3.65022,-1.525911 v 4.128936 q -1.89991,0.718075 -3.79982,1.077113 -1.8999,0.373998 -3.79981,0.373998 -4.54782,0 -7.07604,-2.303826 -2.51327,-2.318787 -2.51327,-6.492602 0,-4.099016 2.46839,-6.447722 2.48334,-2.348706 6.82172,-2.348706 3.94941,0 6.31308,2.378626 2.37863,2.378626 2.37863,6.357962 z m -5.50525,-1.780229 q 0,-1.525911 -0.8976,-2.453426 -0.88263,-0.942474 -2.31878,-0.942474 -1.55583,0 -2.52823,0.882634 -0.97239,0.867675 -1.21175,2.513266 z"
           style="fill:#ffffff"
           id="path7389" />
      </g>
      <rect
         style="fill:#ffffff;stroke:none;stroke-width:0.41105"
         id="rect7054-9"
         width="14.892577"
         height="2.3149259"
         x="98.158989"
         y="189.17175"
         transform="rotate(1.8803203)" />
      <rect
         style="fill:#ffffff;stroke:none;stroke-width:0.360167"
         id="rect7054-9-0"
         width="11.449335"
         height="2.3117709"
         x="70.975372"
         y="171.83978"
         transform="matrix(0.99992816,0.01198679,0.03149321,0.99950397,0,0)" />
    </g>
  </g>
</svg>
