<?xml version="1.0" encoding="UTF-8" standalone="no"?>
<!DOCTYPE svg PUBLIC "-//W3C//DTD SVG 1.1//EN" "http://www.w3.org/Graphics/SVG/1.1/DTD/svg11.dtd">
<svg width="100%" height="100%" viewBox="0 0 680 132" version="1.1" xmlns="http://www.w3.org/2000/svg" xmlns:xlink="http://www.w3.org/1999/xlink" xml:space="preserve" xmlns:serif="http://www.serif.com/" style="fill-rule:evenodd;clip-rule:evenodd;">
    <g transform="matrix(0.302515,0,0,0.302515,-17.8005,-43.3386)">
        <g id="path732-2-2-7" transform="matrix(0.706988,0.707225,-0.707225,0.706988,0,0)">
            <ellipse cx="469.944" cy="41.126" rx="201.768" ry="201.461" style="fill:rgb(249,249,249);"/>
        </g>
        <circle id="path1872-8-9-9" cx="287.391" cy="412.803" r="1.727" style="stroke:black;stroke-width:1.44px;"/>
        <circle id="path2237-8-1-2" cx="163.921" cy="283.541" r="1.27" style="stroke:black;stroke-width:0.75px;"/>
        <ellipse id="path7697-2-2-0" cx="303.94" cy="363.977" rx="179.597" ry="179.619" style="fill:rgb(127,255,42);"/>
        <ellipse id="path7697-2-2-0-0" cx="293.984" cy="337.191" rx="179.29" ry="122.787" style="fill:url(#_Radial1);"/>
        <g id="path944-8-7-2" transform="matrix(0.692842,0.721089,-0.693084,0.720857,0,0)">
            <ellipse cx="470.025" cy="38.272" rx="151.938" ry="150.972" style="fill:url(#_Radial2);"/>
        </g>
        <path id="path604-0-8-0-3" d="M178.013,467.71C163.198,449.806 150.916,424.011 145.941,400.357C139.792,371.114 141.682,340.714 151.362,313.176C172.001,254.463 224.224,212.976 285.894,206.3C326.377,201.918 366.939,212.981 399.669,237.332C410.081,245.078 425.035,260.017 432.531,270.16C456.168,302.148 467.185,340.864 463.761,379.912C456.572,461.932 389.402,525.255 307.449,527.273C257.12,528.512 210.615,507.111 178.014,467.709L178.013,467.71ZM218.584,491.004C244.712,508.174 272.228,516.672 302.267,516.851C386.21,517.349 453.622,450.341 453.636,366.387C453.636,335.065 444.473,305.567 426.854,280.21C420.059,270.432 403.118,252.861 393.612,245.732C358.312,219.261 311.467,209.697 268.07,220.101C250.33,224.355 231.505,232.753 216.971,242.899C208.15,249.057 192.256,263.973 185.801,272.151C164.104,299.641 152.812,331.887 152.806,366.374C152.806,389.88 157.723,411.137 168.119,432.522C176.744,450.264 183.462,459.325 199.298,474.581C208.629,483.569 213.222,487.481 218.584,491.004ZM240.533,411.922C228.083,396.267 219.703,373.753 218.826,353.605C218.488,345.833 219.796,342.97 223.684,342.971C227.264,342.972 228.892,345.919 229.302,353.139C231.654,394.583 260.976,429.363 300.94,438.113C304.667,438.929 311.272,439.912 315.618,440.297C323.953,441.035 326.811,442.525 326.81,446.132C326.81,449.902 323.915,451.34 317.063,450.975C298.2,449.97 279.539,443.945 264.519,434.011C257.758,429.54 245.747,418.479 240.533,411.922ZM281.576,330.382C277.975,321.245 280.568,313.166 288.62,308.432C300.478,301.462 315.091,311.651 313.483,325.767C313.058,329.493 312.662,330.174 308.487,334.348C304.55,338.284 303.432,338.987 300.001,339.684C295.352,340.63 287.852,338.466 284.738,335.281C283.605,334.121 282.182,331.917 281.576,330.382ZM294.7,329.312C296.642,330.177 300.955,328.55 302.192,326.486C304.897,321.969 301.601,316.544 296.389,316.935C292.722,317.21 290.81,319.02 290.379,322.627C290.051,325.372 291.747,327.996 294.7,329.312L294.7,329.312ZM331.067,379.235C329.336,374.627 329.148,372.102 330.272,368.56C331.663,364.178 334.026,361.059 337.839,358.569C340.663,356.727 342.558,356.253 346.873,356.312C362.006,356.521 369.074,373.934 358.398,384.705C353.455,389.692 346.968,391.009 340.029,388.433C335.586,386.784 332.846,383.972 331.067,379.235L331.067,379.235ZM344.546,379.175C346.488,380.04 350.801,378.413 352.038,376.348C354.704,371.897 351.366,366.412 346.224,366.798C342.567,367.072 340.656,368.885 340.225,372.49C339.896,375.235 341.593,377.859 344.546,379.175Z" style="fill-rule:nonzero;"/>
        <path id="path3536-8-9-7" d="M219.122,282.871L314.629,382.361L316.477,382.632" style="fill-rule:nonzero;stroke:rgb(255,0,0);stroke-width:1.76px;"/>
        <path id="path604-6-3-5" d="M158.932,487.07C158.204,486.042 155.341,482.299 152.568,478.752C133.402,454.23 119.646,419.243 116,385.746C110.659,336.683 124.784,287.379 155.431,248.1C162.324,239.266 179.595,222.306 189.25,214.892C260.332,160.305 360.523,163.519 428.641,222.572C504.508,288.34 515.45,402.815 453.469,482.326C446.633,491.095 427.637,509.771 418.815,516.394C351.958,566.592 261.709,567.663 193.32,519.07C186.599,514.294 162.005,491.408 158.932,487.07ZM190.591,501.558C216.98,523.208 247.095,536.345 281.335,541.143C292.994,542.777 317.361,542.765 328.77,541.118C348.388,538.288 370.675,531.063 387.495,522.081C445.293,491.217 481.747,430.534 481.591,365.445C481.54,344.401 478.63,327.4 471.578,306.957C462.511,280.672 449.627,260.164 429.588,240.118C409.91,220.434 390.095,207.821 364.835,198.902C343.154,191.247 326.048,188.203 304.388,188.147C197.417,187.87 114.459,282.576 128.641,388.783C134.519,432.801 157.272,474.221 190.591,501.557L190.591,501.558ZM181.976,472.331C147.437,432.756 134.257,379.228 146.379,327.755C149.799,313.232 157.301,294.638 164.731,282.269C194.323,233.007 247.147,202.966 304.16,202.976C351.95,202.984 397.825,224.11 427.882,259.952C449.076,285.225 460.878,311.873 465.275,344.384C472.023,394.28 455.058,444.106 419.131,479.908C389.588,509.349 354.692,524.875 311.871,527.63C264.646,530.668 214.115,509.156 181.976,472.331ZM202.47,458.884C206.952,454.413 211.178,450.632 211.86,450.48C215.225,449.732 219.907,454.404 219.156,457.765C219.003,458.454 215.175,462.728 210.65,467.262L202.423,475.505L209.359,481.656C229.244,499.293 264.567,513.652 291.616,515.094L297.961,515.432L298.076,503.765C298.197,491.488 298.961,489.425 303.685,488.594C305.327,488.305 306.752,488.825 308.149,490.221C309.883,491.956 310.196,494.044 310.172,503.71L310.143,515.147L313.104,515.263C314.732,515.326 319.85,514.855 324.476,514.216C351.07,510.539 374.809,500.624 395.886,484.39C400.567,480.784 404.813,477.418 405.322,476.91C406.082,476.15 404.769,474.507 397.95,467.685C390.503,460.237 389.653,459.123 389.653,456.832C389.653,453.66 392.571,450.611 395.468,450.756C397.197,450.843 399.402,452.545 406.098,458.958L414.547,467.05L418.223,463.066C432.21,447.909 444.305,424.66 450.118,401.758C451.723,395.434 454.824,374.447 454.411,372.698C454.283,372.152 448.893,371.653 442.435,371.589C435.545,371.521 430.166,370.945 429.417,370.196C428.715,369.494 427.979,367.567 427.782,365.914C427.153,360.634 429.418,359.651 442.493,359.525C456.14,359.394 455.309,360.362 453.466,346.754C449.846,320.013 440.942,297.863 424.924,275.75C422.051,271.784 418.549,267.387 417.141,265.978L414.581,263.418L406.306,271.69C398.615,279.378 397.84,279.955 395.332,279.866C393.848,279.813 392.024,279.16 391.279,278.415C390.534,277.669 389.881,275.845 389.829,274.361C389.741,271.853 390.318,271.078 398.009,263.39L406.284,255.118L403.724,252.557C400.3,249.132 388.208,240.416 380.572,235.869C363.539,225.725 343.928,219.054 322.645,216.163C309.401,214.364 310.321,213.55 310.186,227.173C310.059,239.959 309.076,242.367 304.055,242.189C299.09,242.012 298.243,239.852 298.12,227.053L298.006,215.138L292.852,215.579C269.388,217.586 246.889,224.73 227.138,236.442C219.818,240.783 203.318,253.3 202.969,254.776C202.83,255.362 206.159,259.23 210.777,263.85C217.372,270.447 218.847,272.304 218.937,274.126C219.083,277.06 216.052,279.981 212.862,279.981C210.57,279.981 209.457,279.129 202.011,271.681C197.448,267.116 193.559,263.536 193.37,263.725C193.181,263.914 190.537,267.16 187.496,270.938C180.817,279.235 172.48,292.545 168.19,301.762C161.234,316.707 155.313,339.104 154.554,353.343L154.23,359.421L165.837,359.446C178.197,359.474 181.019,360.564 181.26,365.402C181.497,370.18 178.389,371.422 165.898,371.542L154.231,371.654L154.568,378.03C156.045,405.906 171.991,444.114 189.749,462.326L194.318,467.012L202.468,458.884L202.47,458.884ZM209.763,366.56C209.289,364.183 210.803,361.153 212.918,360.243C214.055,359.754 234.539,359.381 258.438,359.415L301.892,359.475L333.02,328.358C363.297,298.091 364.218,297.24 366.702,297.241C368.106,297.241 369.973,297.959 370.851,298.837C371.728,299.715 372.446,301.582 372.446,302.987C372.445,305.474 371.594,306.391 339.415,338.559L306.385,371.578L260.086,371.57C219.773,371.561 213.541,371.314 211.891,369.646C210.848,368.594 209.891,367.204 209.763,366.56L209.763,366.56Z" style="fill:rgb(34,43,0);fill-rule:nonzero;"/>
        <g id="path944-6-9" transform="matrix(0.694428,0.719563,-0.694668,0.71933,0,0)">
            <ellipse cx="519.361" cy="-11.784" rx="42.154" ry="41.886" style="fill:url(#_Radial3);"/>
        </g>
    </g>
    <g id="g3672" transform="matrix(1.27748,0,0,1.27748,118.918,-594.97)">
        <g id="text1000-4-7" transform="matrix(0.663732,0.00168779,-0.00168779,0.663732,-271.536,459.998)">
            <path id="path7360" d="M511.439,86.603L511.439,115.524L496.172,115.524L496.172,93.473C496.172,89.317 496.073,86.462 495.876,84.907C495.706,83.352 495.395,82.207 494.943,81.472C494.349,80.482 493.543,79.719 492.525,79.182C491.508,78.616 490.349,78.334 489.048,78.334C485.882,78.334 483.394,79.564 481.585,82.023C479.775,84.454 478.871,87.833 478.871,92.158L478.871,115.524L463.689,115.524L463.689,49.54L478.871,49.54L478.871,74.984C481.161,72.213 483.592,70.178 486.165,68.877C488.737,67.548 491.578,66.884 494.688,66.884C500.173,66.884 504.328,68.566 507.156,71.93C510.011,75.295 511.439,80.185 511.439,86.603Z" style="fill:white;fill-rule:nonzero;"/>
            <path id="path7362" d="M525.008,97.035L525.008,68.029L540.275,68.029L540.275,72.779C540.275,75.351 540.261,78.588 540.232,82.49C540.204,86.363 540.19,88.949 540.19,90.25C540.19,94.066 540.289,96.823 540.486,98.519C540.684,100.187 541.024,101.403 541.504,102.166C542.126,103.155 542.932,103.919 543.921,104.456C544.939,104.993 546.098,105.262 547.399,105.262C550.565,105.262 553.053,104.046 554.862,101.615C556.671,99.183 557.576,95.805 557.576,91.48L557.576,68.029L572.757,68.029L572.757,115.524L557.576,115.524L557.576,108.654C555.286,111.425 552.855,113.474 550.282,114.803C547.738,116.103 544.925,116.754 541.843,116.754C536.359,116.754 532.175,115.072 529.291,111.707C526.436,108.343 525.008,103.452 525.008,97.035L525.008,97.035Z" style="fill:white;fill-rule:nonzero;"/>
            <path id="path7364" d="M631.363,75.917C633.285,72.976 635.561,70.743 638.19,69.216C640.848,67.662 643.76,66.884 646.926,66.884C652.382,66.884 656.538,68.566 659.393,71.93C662.249,75.295 663.676,80.185 663.676,86.603L663.676,115.524L648.41,115.524L648.41,90.759C648.438,90.391 648.453,90.01 648.453,89.614C648.481,89.218 648.495,88.653 648.495,87.918C648.495,84.553 648,82.122 647.011,80.624C646.021,79.097 644.424,78.334 642.219,78.334C639.335,78.334 637.102,79.521 635.519,81.896C633.964,84.271 633.158,87.705 633.102,92.201L633.102,115.524L617.836,115.524L617.836,90.759C617.836,85.5 617.383,82.122 616.479,80.624C615.574,79.097 613.962,78.334 611.644,78.334C608.732,78.334 606.485,79.535 604.902,81.938C603.319,84.313 602.527,87.72 602.527,92.158L602.527,115.524L587.261,115.524L587.261,68.029L602.527,68.029L602.527,74.984C604.393,72.298 606.527,70.277 608.93,68.92C611.362,67.563 614.033,66.884 616.945,66.884C620.224,66.884 623.122,67.676 625.638,69.259C628.154,70.842 630.063,73.061 631.363,75.917L631.363,75.917Z" style="fill:white;fill-rule:nonzero;"/>
            <path id="path7366" d="M699.128,94.151C695.961,94.151 693.573,94.688 691.961,95.763C690.378,96.837 689.586,98.42 689.586,100.512C689.586,102.435 690.222,103.947 691.495,105.05C692.795,106.124 694.59,106.661 696.88,106.661C699.736,106.661 702.139,105.643 704.089,103.608C706.04,101.544 707.015,98.971 707.015,95.89L707.015,94.151L699.128,94.151ZM722.324,88.426L722.324,115.524L707.015,115.524L707.015,108.484C704.98,111.368 702.69,113.474 700.145,114.803C697.601,116.103 694.505,116.754 690.859,116.754C685.939,116.754 681.939,115.326 678.858,112.471C675.804,109.587 674.278,105.855 674.278,101.275C674.278,95.706 676.186,91.621 680.003,89.02C683.847,86.419 689.869,85.119 698.068,85.119L707.015,85.119L707.015,83.931C707.015,81.528 706.068,79.776 704.174,78.673C702.28,77.542 699.326,76.977 695.311,76.977C692.06,76.977 689.035,77.302 686.236,77.952C683.438,78.602 680.837,79.578 678.434,80.878L678.434,69.301C681.685,68.51 684.95,67.916 688.229,67.52C691.509,67.096 694.788,66.884 698.068,66.884C706.634,66.884 712.811,68.58 716.599,71.973C720.416,75.337 722.324,80.822 722.324,88.426Z" style="fill:white;fill-rule:nonzero;"/>
            <path id="path7368" d="M784.194,86.603L784.194,115.524L768.928,115.524L768.928,93.388C768.928,89.289 768.829,86.462 768.631,84.907C768.462,83.352 768.151,82.207 767.698,81.472C767.105,80.482 766.299,79.719 765.281,79.182C764.263,78.616 763.104,78.334 761.804,78.334C758.638,78.334 756.15,79.564 754.34,82.023C752.531,84.454 751.626,87.833 751.626,92.158L751.626,115.524L736.445,115.524L736.445,68.029L751.626,68.029L751.626,74.984C753.916,72.213 756.348,70.178 758.92,68.877C761.493,67.548 764.334,66.884 767.444,66.884C772.928,66.884 777.084,68.566 779.911,71.93C782.767,75.295 784.194,80.185 784.194,86.603Z" style="fill:white;fill-rule:nonzero;"/>
        </g>
        <g id="text1000-2-9-3" transform="matrix(0.663489,-0.0180604,0.0180604,0.663489,-264.615,424.916)">
            <path id="path7381" d="M805.12,131.718L805.12,145.203L820.768,145.203L820.768,156.059L805.12,156.059L805.12,176.202C805.12,178.407 805.558,179.906 806.434,180.697C807.311,181.461 809.049,181.842 811.65,181.842L819.453,181.842L819.453,192.698L806.434,192.698C800.441,192.698 796.186,191.454 793.67,188.966C791.182,186.45 789.938,182.196 789.938,176.202L789.938,156.059L782.39,156.059L782.39,145.203L789.938,145.203L789.938,131.718L805.12,131.718Z" style="fill:white;fill-rule:nonzero;"/>
            <path id="path7383" d="M830.055,145.203L845.236,145.203L845.236,192.698L830.055,192.698L830.055,145.203ZM830.055,126.714L845.236,126.714L845.236,139.097L830.055,139.097L830.055,126.714Z" style="fill:white;fill-rule:nonzero;"/>
            <path id="path7385" d="M857.48,186.619C857.48,183.956 858.204,182.103 859.651,181.061C861.099,179.961 862.865,179.41 864.949,179.41C866.975,179.41 868.712,179.961 870.16,181.061C871.607,182.103 872.331,183.956 872.331,186.619C872.331,189.166 871.607,191.019 870.16,192.177C868.712,193.277 866.975,193.827 864.949,193.827C862.865,193.827 861.099,193.277 859.651,192.177C858.204,191.019 857.48,189.166 857.48,186.619Z" style="fill:white;fill-rule:nonzero;"/>
            <path id="path7387" d="M928.593,153.091C930.515,150.151 932.791,147.917 935.42,146.391C938.078,144.836 940.989,144.058 944.156,144.058C949.612,144.058 953.768,145.741 956.623,149.105C959.478,152.469 960.906,157.36 960.906,163.777L960.906,192.698L945.64,192.698L945.64,167.933C945.668,167.566 945.682,167.184 945.682,166.788C945.711,166.392 945.725,165.827 945.725,165.092C945.725,161.728 945.23,159.296 944.241,157.798C943.251,156.271 941.654,155.508 939.449,155.508C936.565,155.508 934.332,156.695 932.749,159.07C931.194,161.445 930.388,164.88 930.332,169.375L930.332,192.698L915.065,192.698L915.065,167.933C915.065,162.675 914.613,159.296 913.708,157.798C912.804,156.271 911.192,155.508 908.874,155.508C905.962,155.508 903.715,156.71 902.132,159.113C900.548,161.487 899.757,164.894 899.757,169.332L899.757,192.698L884.491,192.698L884.491,145.203L899.757,145.203L899.757,152.158C901.623,149.472 903.757,147.451 906.16,146.094C908.591,144.737 911.263,144.058 914.175,144.058C917.454,144.058 920.352,144.85 922.868,146.433C925.384,148.016 927.292,150.236 928.593,153.091L928.593,153.091Z" style="fill:white;fill-rule:nonzero;"/>
            <path id="path7389" d="M1022.48,168.824L1022.48,173.149L986.986,173.149C987.353,176.711 988.64,179.383 990.845,181.164C993.05,182.945 996.131,183.835 1000.09,183.835C1003.28,183.835 1006.55,183.369 1009.88,182.436C1013.25,181.475 1016.7,180.033 1020.23,178.11L1020.23,189.815C1016.64,191.172 1013.05,192.189 1009.46,192.868C1005.87,193.575 1002.28,193.928 998.69,193.928C990.096,193.928 983.41,191.751 978.632,187.397C973.882,183.015 971.508,176.881 971.508,168.993C971.508,161.247 973.84,155.155 978.505,150.716C983.198,146.278 989.643,144.058 997.842,144.058C1005.31,144.058 1011.27,146.306 1015.74,150.801C1020.23,155.296 1022.48,161.304 1022.48,168.824ZM1006.87,163.777C1006.87,160.894 1006.03,158.575 1004.33,156.823C1002.66,155.042 1000.47,154.151 997.757,154.151C994.817,154.151 992.428,154.985 990.59,156.653C988.753,158.293 987.608,160.667 987.155,163.777L1006.87,163.777Z" style="fill:white;fill-rule:nonzero;"/>
        </g>
        <g id="rect7054-9" transform="matrix(0.999462,0.0328119,-0.0328119,0.999462,0,0)">
            <rect x="278.246" y="536.235" width="42.215" height="6.562" style="fill:rgb(236,61,33);"/>
        </g>
        <g id="rect7054-9-0" transform="matrix(0.999928,0.0119868,0.0314932,0.999504,0,0)">
            <rect x="201.19" y="487.105" width="32.455" height="6.553" style="fill:rgb(143,254,69);"/>
        </g>
    </g>
    <defs>
        <radialGradient id="_Radial1" cx="0" cy="0" r="1" gradientUnits="userSpaceOnUse" gradientTransform="matrix(179.29,0,0,122.787,293.984,337.191)"><stop offset="0" style="stop-color:white;stop-opacity:1"/><stop offset="0.62" style="stop-color:rgb(248,248,248);stop-opacity:0.13"/><stop offset="1" style="stop-color:rgb(248,248,248);stop-opacity:0.13"/></radialGradient>
        <radialGradient id="_Radial2" cx="0" cy="0" r="1" gradientUnits="userSpaceOnUse" gradientTransform="matrix(151.938,0,0,150.972,470.025,38.2717)"><stop offset="0" style="stop-color:rgb(148,255,249);stop-opacity:1"/><stop offset="1" style="stop-color:white;stop-opacity:0.15"/></radialGradient>
        <radialGradient id="_Radial3" cx="0" cy="0" r="1" gradientUnits="userSpaceOnUse" gradientTransform="matrix(42.1543,0,0,41.8865,519.361,-11.7841)"><stop offset="0" style="stop-color:white;stop-opacity:1"/><stop offset="0.46" style="stop-color:rgb(248,248,248);stop-opacity:0.13"/><stop offset="1" style="stop-color:rgb(248,248,248);stop-opacity:0.13"/></radialGradient>
    </defs>
</svg>
